PathFileType	4	(X/Y/Z)	c:/Users/goper/Files/vsCode/490R/osim_files/A03/A03_Slow_06.trc
DataRate	CameraRate	NumFrames	NumMarkers	Units                	OrigDataRate	OrigDataStartFrame	OrigNumFrames
250.00	250.00	4	36	mm	250.0	1864	2981
                Frame#	Time	LPSIS			LASIS			LTH1			LTH2			LTH3			LTH4			LLFE			LMFE			LSH1			LSH2			LSH3			LSH4			LLMAL			LMMAL			LCAL			LMTP5			LTOE			LMTP1			RPSIS			RASIS			RTH1			RTH2			RTH3			RTH4			RLFE			RMFE			RSH1			RSH2			RSH3			RSH4			RLMAL			RMMAL			RCAL			RMTP1			RTOE			RMTP5		
		X1	Y1	Z1	X2	Y2	Z2	X3	Y3	Z3	X4	Y4	Z4	X5	Y5	Z5	X6	Y6	Z6	X7	Y7	Z7	X8	Y8	Z8	X9	Y9	Z9	X10	Y10	Z10	X11	Y11	Z11	X12	Y12	Z12	X13	Y13	Z13	X14	Y14	Z14	X15	Y15	Z15	X16	Y16	Z16	X17	Y17	Z17	X18	Y18	Z18	X19	Y19	Z19	X20	Y20	Z20	X21	Y21	Z21	X22	Y22	Z22	X23	Y23	Z23	X24	Y24	Z24	X25	Y25	Z25	X26	Y26	Z26	X27	Y27	Z27	X28	Y28	Z28	X29	Y29	Z29	X30	Y30	Z30	X31	Y31	Z31	X32	Y32	Z32	X33	Y33	Z33	X34	Y34	Z34	X35	Y35	Z35	X36	Y36	Z36

1864	7.45200	-1443.03711	1038.65613	239.63861	-1686.00085	951.92218	351.05045	-1740.87732	616.90558	380.98135	-1763.69824	580.39062	376.39981	-1792.36035	641.48413	355.94089	-1805.79919	600.05951	353.33698	-1759.26782	541.17645	367.30148	-1775.50269	534.74335	211.93440	-1742.48376	447.13834	369.84860	-1758.04529	401.35590	369.89713	-1803.03015	459.12601	361.81100	-1807.93103	411.75739	358.77316	-1855.82629	92.19850	346.69824	-1862.37451	100.45047	248.55379	-1787.58240	72.46031	296.69131	-2011.28210	57.09054	352.38394	-2034.06458	90.65845	282.29724	-2005.12036	64.89339	238.01868	-1443.29919	1053.64136	157.40939	-1669.65173	937.95129	53.41766	-1487.00366	598.10333	8.87609	-1478.15735	554.52032	14.12935	-1545.57068	579.33362	8.42012	-1529.90735	538.47760	13.75378	-1490.79126	515.47504	26.32096	-1536.74512	503.60782	140.81439	-1411.46545	480.36938	31.59044	-1388.02490	446.03894	20.63925	-1460.27515	442.29297	22.06925	-1427.58765	410.03232	13.50539	-1238.22717	164.45547	69.27237	0.00000	0.00000	0.00000	-1165.57678	138.53221	127.68295	-1354.95154	49.81676	184.27113	-1385.19995	66.10399	138.42139	-1349.15088	42.73466	68.84121
1865	7.45600	-1447.81433	1039.12476	240.23206	-1690.58936	952.26746	351.02838	-1745.17151	617.62061	381.91824	-1767.92444	581.00287	377.51642	-1796.79370	641.91187	356.81152	-1810.15918	600.48480	354.45139	-1763.49792	541.55060	368.61667	-1779.75208	535.34833	213.23962	-1746.03198	447.70920	370.90533	-1761.25269	401.70688	370.87064	-1806.63184	459.14868	362.94437	-1811.13635	411.79349	359.81210	-1856.48804	91.94521	346.76080	-1863.06750	100.39582	248.86710	-1787.92871	72.71676	296.75546	-2011.71057	55.67583	352.52997	-2034.74414	89.25834	282.52203	-2005.60767	63.78377	238.18983	-1447.92493	1053.88928	157.87250	-1674.30481	938.42487	53.96963	-1493.26245	598.22998	8.28771	-1484.51648	554.76263	13.13503	-1551.82678	579.54352	7.56731	-1536.25830	538.62439	12.78726	-1497.27856	515.52332	25.36473	-1543.25928	503.43127	139.63513	-1417.72485	481.12259	30.69790	-1394.00916	446.95456	19.82617	-1466.15308	442.56976	21.14471	-1433.22595	410.59274	12.64830	-1241.79492	166.82977	68.87477	0.00000	0.00000	0.00000	-1168.79077	142.74760	127.43943	-1355.95911	49.78545	184.22681	-1386.49524	65.48702	138.36740	-1349.61792	42.80559	68.96047
1866	7.46000	-1452.45117	1039.65112	240.67204	-1695.14587	952.65619	351.01770	-1749.50244	618.34625	383.01776	-1772.09570	581.63495	378.80557	-1801.13110	642.42645	357.84827	-1814.44690	600.92053	355.72931	-1767.74182	541.96075	370.00317	-1784.11084	536.04193	214.63702	-1749.43970	448.15387	372.06931	-1764.38220	402.11401	371.88480	-1810.24133	459.21182	364.15851	-1814.33289	411.79309	360.88434	-1857.05981	91.73433	346.82285	-1863.73120	100.38277	249.18401	-1788.37903	72.94912	296.90775	-2012.06592	54.30430	352.69205	-2035.37915	87.94033	282.81226	-2006.33606	62.55322	238.82698	-1452.45898	1054.17993	158.38754	-1678.99512	938.93671	54.58383	-1499.67981	598.36188	7.63839	-1490.75439	554.73792	12.34036	-1558.28894	579.79376	6.68441	-1542.81189	538.79980	11.76642	-1503.89294	515.65802	24.34038	-1549.61182	503.20352	138.50246	-1424.20825	481.90656	29.76857	-1400.19250	447.89636	18.96296	-1472.30298	442.92410	20.13116	-1439.07971	411.15714	11.74310	-1245.61560	169.35402	68.41325	0.00000	0.00000	0.00000	-1172.33716	147.11969	127.10910	-1356.98608	49.84800	184.13263	-1387.94312	64.80071	138.26894	-1350.72583	42.74625	69.51787
1867	7.46400	-1456.40381	1040.78906	240.55556	-1699.67383	953.08929	351.02594	-1753.61365	618.99933	384.14322	-1776.18457	582.27142	380.15475	-1805.46790	642.92615	359.04037	-1818.64832	601.38226	357.13800	-1772.00208	542.34967	371.45297	-1788.33521	536.67627	216.09474	-1752.95789	448.67630	373.25845	-1767.50305	402.51251	372.94699	-1813.84875	459.29794	365.41953	-1817.57849	411.84814	362.00119	-1857.61682	91.53017	346.93454	-1864.36755	100.39867	249.51501	-1788.73560	73.22183	297.00140	-2012.38037	53.03026	352.88779	-2035.89600	86.64153	283.08377	-2006.76086	61.62592	239.04346	-1457.06433	1054.52710	158.86301	-1683.61230	939.52936	55.09233	-1506.23560	598.50140	6.93674	-1497.48132	554.77618	11.47987	-1564.94946	580.06122	5.77323	-1549.59412	539.00079	10.74675	-1510.73865	515.75665	23.28433	-1557.30078	503.17303	136.94426	-1430.79932	482.78308	28.65830	-1406.67285	448.89172	17.99354	-1478.75085	443.25467	19.11708	-1445.24695	411.75626	10.82101	-1249.72339	171.84392	67.87090	0.00000	0.00000	0.00000	-1176.22156	151.65279	126.64678	-1358.17102	49.86710	184.03435	-1389.57959	64.08401	138.08478	-1351.40601	42.80593	69.52375
